<?xml version="1.0" encoding="utf-8"?>
<!-- Generator: Adobe Illustrator 23.0.3, SVG Export Plug-In . SVG Version: 6.00 Build 0)  -->
<svg version="1.1" xmlns="http://www.w3.org/2000/svg" xmlns:xlink="http://www.w3.org/1999/xlink" x="0px" y="0px"
	 viewBox="0 0 1500 1500" style="enable-background:new 0 0 1500 1500;" xml:space="preserve">
<style type="text/css">
	.st0{display:none;}
	.st1{display:inline;}
	.st2{fill:#E43D26;}
	.st3{fill:#DAC725;}
	.st4{fill:#FCB814;}
	.st5{fill:#4FA4C9;}
	.st6{fill:#C42429;}
	.st7{fill:#CB1E55;}
	.st8{fill:#F09721;}
	.st9{fill:#EB6224;}
	.st10{fill:#0D71BA;}
	.st11{fill:#09466B;}
	.st12{fill:#3888FC;}
	.st13{fill:#1323E8;}
	.st14{fill:#2642FF;}
	.st15{fill:#743D62;}
	.st16{fill:#2FFFFF;}
	.st17{fill:#20F2D8;}
	.st18{fill:#FF596A;}
	.st19{fill:#FF8EB8;}
	.st20{fill:#2536FF;}
</style>
<g id="original" class="st0">
	<g class="st1">
		<g>
			<g>
				<polygon class="st2" points="901.4,384.8 643.5,383.8 643.5,383.8 771.5,607.6 				"/>
			</g>
			<g>
				<polygon class="st3" points="1159.3,385.8 901.4,384.8 901.4,384.8 1029.4,608.7 				"/>
			</g>
			<g>
				<polygon class="st4" points="1029.4,608.7 901.4,384.8 771.5,607.6 771.5,607.6 				"/>
			</g>
			<g>
				<polygon class="st5" points="1029.4,608.7 1029.4,608.7 1287.3,609.7 1287.3,609.7 1159.3,385.8 				"/>
			</g>
			<g>
				<polygon class="st6" points="901.4,384.8 773.3,161 643.5,383.8 				"/>
			</g>
			<g>
				<polygon class="st7" points="643.5,383.8 773.3,161 515.4,159.9 				"/>
			</g>
			<g>
				<polygon class="st8" points="1159.3,385.8 1143.1,357.6 1031.2,162 901.4,384.8 1159.3,385.8 				"/>
			</g>
			<g>
				<polygon class="st9" points="1031.2,162 773.3,161 901.4,384.8 901.4,384.8 				"/>
			</g>
			<g>
				<polygon class="st10" points="1028.4,606.5 1156.5,830.3 1286.3,607.5 				"/>
			</g>
			<g>
				<polygon class="st11" points="1286.3,607.5 1156.5,830.3 1414.4,831.3 				"/>
			</g>
		</g>
		<g>
			<g>
				<polygon class="st2" points="1007.4,1093.7 1137.2,870.9 1137.2,870.9 879.3,869.9 				"/>
			</g>
			<g>
				<polygon class="st3" points="877.5,1316.6 1007.4,1093.7 1007.4,1093.7 749.5,1092.7 				"/>
			</g>
			<g>
				<polygon class="st4" points="749.5,1092.7 1007.4,1093.7 879.3,869.9 879.3,869.9 				"/>
			</g>
			<g>
				<polygon class="st5" points="749.5,1092.7 749.5,1092.7 619.7,1315.5 619.7,1315.5 877.6,1316.6 				"/>
			</g>
			<g>
				<polygon class="st6" points="1007.4,1093.7 1265.3,1094.8 1137.2,870.9 				"/>
			</g>
			<g>
				<polygon class="st7" points="1137.2,870.9 1265.3,1094.8 1395.1,871.9 				"/>
			</g>
			<g>
				<polygon class="st8" points="877.6,1316.6 910.1,1316.7 1135.4,1317.6 1007.4,1093.7 877.6,1316.6 				"/>
			</g>
			<g>
				<polygon class="st9" points="1135.4,1317.6 1265.3,1094.8 1007.4,1093.7 1007.4,1093.7 				"/>
			</g>
			<g>
				<polygon class="st10" points="751.9,1092.8 494,1091.9 622.1,1315.7 				"/>
			</g>
			<g>
				<polygon class="st11" points="622.1,1315.7 494,1091.9 364.2,1314.7 				"/>
			</g>
		</g>
		<g>
			<g>
				<polygon class="st2" points="340.4,831.1 468.5,1054.9 468.5,1054.9 598.3,832.1 				"/>
			</g>
			<g>
				<polygon class="st3" points="212.4,607.2 340.4,831.1 340.4,831.1 470.3,608.2 				"/>
			</g>
			<g>
				<polygon class="st4" points="470.3,608.2 340.4,831.1 598.3,832.1 598.3,832.1 				"/>
			</g>
			<g>
				<polygon class="st5" points="470.3,608.2 470.3,608.2 342.2,384.4 342.2,384.4 212.4,607.2 				"/>
			</g>
			<g>
				<polygon class="st6" points="340.4,831.1 210.6,1053.9 468.5,1054.9 				"/>
			</g>
			<g>
				<polygon class="st7" points="468.5,1054.9 210.6,1053.9 338.7,1277.7 				"/>
			</g>
			<g>
				<polygon class="st8" points="212.4,607.2 196,635.3 82.5,830 340.4,831.1 212.4,607.2 				"/>
			</g>
			<g>
				<polygon class="st9" points="82.5,830 210.6,1053.9 340.4,831.1 340.4,831.1 				"/>
			</g>
			<g>
				<polygon class="st10" points="468.9,610.2 598.7,387.4 340.8,386.4 				"/>
			</g>
			<g>
				<polygon class="st11" points="340.8,386.4 598.7,387.4 470.6,163.6 				"/>
			</g>
		</g>
	</g>
</g>
<g id="neue_x5F_farben">
	<g>
		<g>
			<g>
				<polygon class="st12" points="901.4,384.8 643.5,383.8 643.5,383.8 771.5,607.6 				"/>
			</g>
			<g>
				<polygon class="st13" points="1159.3,385.8 901.4,384.8 901.4,384.8 1029.4,608.7 				"/>
			</g>
			<g>
				<polygon class="st14" points="1029.4,608.7 901.4,384.8 771.5,607.6 771.5,607.6 				"/>
			</g>
			<g>
				<polygon class="st15" points="1029.4,608.7 1029.4,608.7 1287.3,609.7 1287.3,609.7 1159.3,385.8 				"/>
			</g>
			<g>
				<polygon class="st16" points="901.4,384.8 773.3,161 643.5,383.8 				"/>
			</g>
			<g>
				<polygon class="st17" points="643.5,383.8 773.3,161 515.4,159.9 				"/>
			</g>
			<g>
				<polygon class="st14" points="1159.3,385.8 1143.1,357.6 1031.2,162 901.4,384.8 1159.3,385.8 				"/>
			</g>
			<g>
				<polygon class="st12" points="1031.2,162 773.3,161 901.4,384.8 901.4,384.8 				"/>
			</g>
			<g>
				<polygon class="st18" points="1028.4,606.5 1156.5,830.3 1286.3,607.5 				"/>
			</g>
			<g>
				<polygon class="st19" points="1286.3,607.5 1156.5,830.3 1414.4,831.3 				"/>
			</g>
		</g>
		<g>
			<g>
				<polygon class="st12" points="1007.4,1093.7 1137.2,870.9 1137.2,870.9 879.3,869.9 				"/>
			</g>
			<g>
				<polygon class="st13" points="877.5,1316.6 1007.4,1093.7 1007.4,1093.7 749.5,1092.7 				"/>
			</g>
			<g>
				<polygon class="st14" points="749.5,1092.7 1007.4,1093.7 879.3,869.9 879.3,869.9 				"/>
			</g>
			<g>
				<polygon class="st15" points="749.5,1092.7 749.5,1092.7 619.7,1315.5 619.7,1315.5 877.6,1316.6 				"/>
			</g>
			<g>
				<polygon class="st16" points="1007.4,1093.7 1265.3,1094.8 1137.2,870.9 				"/>
			</g>
			<g>
				<polygon class="st17" points="1137.2,870.9 1265.3,1094.8 1395.1,871.9 				"/>
			</g>
			<g>
				<polygon class="st14" points="877.6,1316.6 910.1,1316.7 1135.4,1317.6 1007.4,1093.7 877.6,1316.6 				"/>
			</g>
			<g>
				<polygon class="st12" points="1135.4,1317.6 1265.3,1094.8 1007.4,1093.7 1007.4,1093.7 				"/>
			</g>
			<g>
				<polygon class="st18" points="751.9,1092.8 494,1091.9 622.1,1315.7 				"/>
			</g>
			<g>
				<polygon class="st19" points="622.1,1315.7 494,1091.9 364.2,1314.7 				"/>
			</g>
		</g>
		<g>
			<g>
				<polygon class="st12" points="340.4,831.1 468.5,1054.9 468.5,1054.9 598.3,832.1 				"/>
			</g>
			<g>
				<polygon class="st13" points="212.4,607.2 340.4,831.1 340.4,831.1 470.3,608.2 				"/>
			</g>
			<g>
				<polygon class="st14" points="470.3,608.2 340.4,831.1 598.3,832.1 598.3,832.1 				"/>
			</g>
			<g>
				<polygon class="st15" points="470.3,608.2 470.3,608.2 342.2,384.4 342.2,384.4 212.4,607.2 				"/>
			</g>
			<g>
				<polygon class="st16" points="340.4,831.1 210.6,1053.9 468.5,1054.9 				"/>
			</g>
			<g>
				<polygon class="st17" points="468.5,1054.9 210.6,1053.9 338.7,1277.7 				"/>
			</g>
			<g>
				<polygon class="st20" points="212.4,607.2 196,635.3 82.5,830 340.4,831.1 212.4,607.2 				"/>
			</g>
			<g>
				<polygon class="st12" points="82.5,830 210.6,1053.9 340.4,831.1 340.4,831.1 				"/>
			</g>
			<g>
				<polygon class="st18" points="468.9,610.2 598.7,387.4 340.8,386.4 				"/>
			</g>
			<g>
				<polygon class="st19" points="340.8,386.4 598.7,387.4 470.6,163.6 				"/>
			</g>
		</g>
	</g>
</g>
</svg>
